<svg xmlns="http://www.w3.org/2000/svg" viewBox="0 0 660 520" font-family="Inter, Helvetica, Arial, sans-serif" font-size="13">
  <defs>
    <pattern id="c" width="14" height="14" patternUnits="userSpaceOnUse"><rect width="14" height="14" fill="#C9D5DB"/><circle cx="4" cy="5" r="1.2" fill="#8B9DA5"/><circle cx="10" cy="11" r="1" fill="#8B9DA5"/></pattern>
    <pattern id="l" width="32" height="16" patternUnits="userSpaceOnUse"><rect width="32" height="16" fill="#D9865D"/><path d="M0 .5H32M0 8.5H32M8 .5V8.5M24 8.5V16" stroke="#A8471F" stroke-width="1"/></pattern>
  </defs>
  <rect width="660" height="520" fill="#fff"/>
  <!-- Panel 1: nudo -->
  <g transform="translate(10,10)">
    <rect width="310" height="240" rx="10" fill="#FBE4E1"/>
    <rect x="120" y="20" width="56" height="190" fill="url(#c)" stroke="#2E5A70" stroke-width="2"/>
    <rect x="20" y="70" width="270" height="50" fill="url(#c)" stroke="#2E5A70" stroke-width="2"/>
    <path d="M128 62 L150 88 L144 110 L170 132 L160 158" stroke="#1F2A30" stroke-width="3" fill="none"/>
    <path d="M168 62 L148 86 L156 110 L128 132" stroke="#1F2A30" stroke-width="3" fill="none"/>
    <path d="M122 132 Q140 150 124 170 L122 132 Z" fill="#8B9DA5"/>
    <path d="M176 130 Q160 152 174 172 Z" fill="#8B9DA5"/>
    <g stroke="#7A3B1E" stroke-width="3"><line x1="132" y1="128" x2="132" y2="180"/><line x1="164" y1="128" x2="164" y2="180"/></g>
    <rect x="128" y="138" width="40" height="30" fill="#E6D3C3" opacity=".7"/>
    <g stroke="#7A3B1E" stroke-width="3"><line x1="134" y1="138" x2="138" y2="168"/><line x1="162" y1="138" x2="158" y2="168"/></g>
    <text x="155" y="232" text-anchor="middle" font-weight="700" fill="#B3261E">Nudo con grietas en X y acero expuesto</text>
  </g>
  <!-- Panel 2: muro de carga escalonado -->
  <g transform="translate(340,10)">
    <rect width="310" height="240" rx="10" fill="#FBE4E1"/>
    <rect x="30" y="34" width="250" height="16" fill="#8B9DA5"/>
    <rect x="30" y="50" width="250" height="150" fill="url(#l)"/>
    <rect x="30" y="50" width="12" height="150" fill="#8B9DA5"/><rect x="268" y="50" width="12" height="150" fill="#8B9DA5"/>
    <path d="M80 52 L80 60 L96 60 L96 68 L112 68 L112 76 L128 76 L128 84 L144 84 L144 92 L160 92 L160 100 L176 100 L176 108 L192 108 L192 116 L208 116 L208 124 L224 124 L224 132 L240 132 L240 140" stroke="#1F2A30" stroke-width="3" fill="none"/>
    <text x="155" y="28" text-anchor="middle" fill="#1F2A30" font-size="11.5">placa apoyada sobre el muro</text>
    <text x="155" y="232" text-anchor="middle" font-weight="700" fill="#B3261E">Grieta escalonada en muro de carga</text>
  </g>
  <!-- Panel 3: desplome / puerta trabada -->
  <g transform="translate(10,268)">
    <rect width="310" height="240" rx="10" fill="#FBE4E1"/>
    <rect x="20" y="196" width="270" height="10" fill="#EAE2D5"/>
    <path d="M60 196 L84 196 L112 40 L88 40 Z" fill="#2E5A70"/>
    <line x1="72" y1="196" x2="72" y2="40" stroke="#B3261E" stroke-width="1.5" stroke-dasharray="5 4"/>
    <path d="M70 52 Q86 40 100 48" stroke="#B3261E" stroke-width="2" fill="none"/>
    <rect x="170" y="80" width="80" height="116" fill="none" stroke="#5B666C" stroke-width="5"/>
    <path d="M175 84 L240 92 L244 196 L178 196 Z" fill="#B88A5B"/>
    <circle cx="232" cy="146" r="4" fill="#1F2A30"/>
    <text x="155" y="232" text-anchor="middle" font-weight="700" fill="#B3261E">Columnas inclinadas, puertas trabadas</text>
  </g>
  <!-- Panel 4: escalera separada -->
  <g transform="translate(340,268)">
    <rect width="310" height="240" rx="10" fill="#FBE4E1"/>
    <rect x="200" y="40" width="80" height="16" fill="url(#c)" stroke="#2E5A70" stroke-width="2"/>
    <rect x="270" y="40" width="20" height="166" fill="url(#c)" stroke="#2E5A70" stroke-width="2"/>
    <path d="M40 196 L40 186 L60 186 L60 170 L80 170 L80 154 L100 154 L100 138 L120 138 L120 122 L140 122 L140 106 L160 106 L160 90 L180 90 L180 74 L186 74 L186 92 L50 206 L40 206 Z" fill="#AFC1C9" stroke="#2E5A70" stroke-width="2"/>
    <line x1="188" y1="58" x2="198" y2="58" stroke="#B3261E" stroke-width="3"/>
    <path d="M190 40 L196 56" stroke="#B3261E" stroke-width="2"/>
    <text x="210" y="96" fill="#B3261E" font-size="12" font-weight="700">separación</text>
    <rect x="20" y="206" width="270" height="6" fill="#EAE2D5"/>
    <text x="155" y="232" text-anchor="middle" font-weight="700" fill="#B3261E">Escalera separada de su apoyo</text>
  </g>
</svg>
